<?xml version="1.0" encoding="utf-8"?>
<!-- Generator: Adobe Illustrator 22.1.0, SVG Export Plug-In . SVG Version: 6.00 Build 0)  -->
<svg version="1.1" id="Layer_1" xmlns="http://www.w3.org/2000/svg" xmlns:xlink="http://www.w3.org/1999/xlink" x="0px" y="0px"
	 viewBox="0 0 1140 360" style="enable-background:new 0 0 1140 360;" xml:space="preserve">
<style type="text/css">
	.st0{fill:#1D4380;}
	.st1{fill:#59B4D9;}
	.st2{fill:#FFFFFF;}
	.st3{fill:#55ADD3;}
	.st4{opacity:0.5;fill:#FFFFFF;enable-background:new    ;}
	.st5{fill:#B8D432;}
	.st6{opacity:0.1;fill:#6699CC;enable-background:new    ;}
	.st7{fill:#3999C6;}
	.st8{fill:#7FBA00;}
	.st9{fill:#A0A1A2;}
	.st10{fill:#7A7A7A;}
	.st11{fill:#FCD116;}
	.st12{opacity:0.2;fill:#FFFFFF;enable-background:new    ;}
	.st13{fill:none;}
	.st14{fill:#FFFFFF;stroke:#000000;stroke-miterlimit:10;}
	.st15{font-family:'MyriadPro-Regular';}
	.st16{font-size:69px;}
</style>
<path class="st0" d="M0,0h1140v360H0V0z"/>
<path class="st1" d="M597,128.5c-6.3,4.9-13.8,7.2-21.2,7.2c-10.5,0-20.9-4.7-27.8-13.7c-11.8-15.3-8.9-37.3,6.5-49.1
	c6.3-4.9,13.8-7.2,21.2-7.2c10.5,0,20.9,4.7,27.8,13.7C615.3,94.8,612.4,116.7,597,128.5"/>
<path class="st2" d="M590.6,106.8c2.5,3.3,7.3,3.9,10.6,1.4c0.2-0.1,0.3-0.3,0.5-0.4c3.4,2.4,5.7,3.9,7,4.8c0.4-1,0.7-2,0.9-3
	c-1.4-1-3.3-2.5-6-4.7c0.9-2.4,0.6-5.1-1-7.2c-2.3-3-6.5-3.8-9.7-1.9c-3.6-3.2-7.5-6.9-11.6-11c12.8-6.9,22-5.9,22-5.9
	c-1.5-1.9-3.2-3.6-5-5.2c-5.4-0.8-13.8-0.7-23.4,4.4l0,0h0c-3.2-3.4-6.5-6.9-9.8-10.8c-1.6,0.5-3.1,1.1-4.6,1.9
	c2.4,4,5.7,8.1,9.5,12l0,0c-3.1,2.2-6.5,5.1-9.7,8.4c-0.4,0.4-0.8,0.9-1.2,1.3c-1.9-0.4-3.9-0.3-5.8,0.4c-3.2-6.8-2.9-12.3-2.4-15.2
	c-1.4,1.4-2.7,3-3.8,4.6c-0.8,3.4-1.1,8.3,1.4,14.1c-2.8,3.7-3,8.9,0,12.8c0.2,0.3,0.5,0.6,0.8,0.9c-1.3,4.4-1.9,8.6-2,12.3l0.7,1.3
	c1.7,2.2,3.8,4,5.8,5.6c-0.3-3.9,0-9.5,2.4-15.9c1.6,0.1,3.3-0.1,4.9-0.8c0.9,0.8,1.8,1.6,2.8,2.4c3.4,2.7,6.9,4.8,10.2,6.5
	c-0.2,1.7,0.3,3.5,1.4,4.9c2.4,3,6.7,3.6,9.8,1.3c0.6-0.5,1.1-1.1,1.6-1.7c5.4,1.2,10.2,1.4,13.7,1.4c0.5,0,3-3.4,4.5-5.5
	c-2.1,0.4-8.5,1.3-17.2-1.2c-0.2-1-0.6-1.9-1.3-2.8c-2.2-2.9-6.3-3.5-9.3-1.6c-3-1.6-6.2-3.7-9.5-6.3c-0.7-0.5-1.3-1-1.9-1.6
	c2-3.1,2.2-7.2,0.4-10.6c0.4-0.4,0.8-0.8,1.2-1.2c3.2-3,6.3-5.4,9.1-7.4l-0.3-0.3l0.3,0.3l0,0c4.4,4,9,7.9,13.4,11.3
	C588.6,101.5,588.8,104.5,590.6,106.8L590.6,106.8z"/>
<path class="st3" d="M702.8,135.7c-1.7,0-3.3-0.7-4.6-1.9l-28.5-28.5c-1.2-1.2-1.9-2.9-1.9-4.6c0-1.7,0.7-3.4,1.9-4.6l28.5-28.5
	c1.2-1.2,2.8-1.9,4.6-1.9c1.7,0,3.3,0.7,4.6,1.9l28.5,28.5c1.2,1.2,1.9,2.8,1.9,4.6s-0.7,3.3-1.9,4.6l-28.5,28.5
	C706.2,135,704.6,135.7,702.8,135.7"/>
<path class="st2" d="M721.9,95.2c-3,0-5.5,2.4-5.5,5.5c0,1.1,0.3,2.1,0.9,3l-10.8,10.8c-0.3-0.2-0.6-0.4-0.9-0.5V86.4
	c1.6-0.9,2.7-2.7,2.7-4.7c0-3-2.5-5.5-5.5-5.5c-3,0-5.5,2.4-5.5,5.5c0,2,1.1,3.8,2.7,4.7V114c-0.3,0.1-0.6,0.3-0.9,0.5l-10.9-10.9
	c0.6-0.9,0.9-1.9,0.9-3c0-3-2.5-5.5-5.5-5.5c-3,0-5.5,2.4-5.5,5.5c0,3,2.5,5.5,5.5,5.5c0.6,0,1.2-0.1,1.8-0.3l11.4,11.4
	c-0.3,0.8-0.5,1.6-0.5,2.5c0,3.5,2.9,6.4,6.4,6.4c3.5,0,6.4-2.9,6.4-6.4c0-0.9-0.2-1.7-0.5-2.5l11.4-11.4c0.5,0.2,1.1,0.3,1.7,0.3
	c3,0,5.5-2.4,5.5-5.5C727.4,97.7,724.9,95.2,721.9,95.2L721.9,95.2z"/>
<rect x="711.2" y="77.4" transform="matrix(0.7071 -0.7071 0.7071 0.7071 143.8947 531.0535)" class="st4" width="3.5" height="28.9"/>
<rect x="678.1" y="90" transform="matrix(0.7071 -0.7071 0.7071 0.7071 137.9682 516.6183)" class="st4" width="28.9" height="3.5"/>
<path class="st5" d="M706.6,119.8c0,2.1-1.7,3.8-3.8,3.8c-2.1,0-3.8-1.7-3.8-3.8s1.7-3.8,3.8-3.8C704.9,116,706.6,117.7,706.6,119.8
	"/>
<path class="st5" d="M705.9,81.6c0,1.7-1.4,3-3,3c-1.7,0-3-1.4-3-3s1.4-3,3-3S705.9,80,705.9,81.6"/>
<path class="st5" d="M686.8,100.7c0,1.7-1.4,3-3,3c-1.7,0-3-1.4-3-3s1.4-3,3-3C685.5,97.6,686.8,99,686.8,100.7"/>
<path class="st5" d="M724.9,100.7c0,1.7-1.4,3-3,3s-3-1.4-3-3s1.4-3,3-3C723.6,97.6,724.9,99,724.9,100.7"/>
<path class="st6" d="M707.4,67.6c-1.2-1.2-2.8-1.9-4.6-1.9c-1.7,0-3.3,0.7-4.6,1.9l-28.5,28.5c-1.2,1.2-1.9,2.9-1.9,4.6
	c0,1.7,0.7,3.4,1.9,4.6l16.2,16.2l30.4-44.9L707.4,67.6L707.4,67.6z"/>
<path class="st7" d="M803.5,75.3v50.9c0,5.3,11.8,9.6,26.4,9.6V75.3H803.5z"/>
<path class="st1" d="M829.6,135.7h0.4c14.6,0,26.4-4.3,26.4-9.6V75.3h-26.8V135.7z"/>
<path class="st2" d="M856.3,75.3c0,5.3-11.8,9.6-26.4,9.6s-26.4-4.3-26.4-9.6s11.8-9.6,26.4-9.6S856.3,70,856.3,75.3"/>
<path class="st8" d="M850.9,74.7c0,3.5-9.4,6.3-21,6.3s-21-2.8-21-6.3c0-3.5,9.4-6.3,21-6.3C841.5,68.4,850.9,71.2,850.9,74.7"/>
<path class="st5" d="M846.5,78.6c2.8-1.1,4.4-2.4,4.4-3.9c0-3.5-9.4-6.3-21-6.3c-11.6,0-21,2.8-21,6.3c0,1.5,1.7,2.8,4.4,3.9
	c3.8-1.5,9.8-2.5,16.6-2.5C836.7,76.1,842.7,77.1,846.5,78.6"/>
<path class="st2" d="M847,116.5c-1.4,1.2-3.3,1.8-5.8,1.8h-8.3V96.6h7.9c2.5,0,4.4,0.5,5.7,1.4c1.2,0.9,1.8,2.1,1.8,3.7
	c0,1.3-0.4,2.3-1.4,3.3c-0.8,0.8-1.7,1.3-2.9,1.6v0.1c1.5,0.2,2.8,0.8,3.7,1.8c0.9,0.9,1.3,2.1,1.3,3.4
	C849.1,113.8,848.4,115.3,847,116.5 M826.8,115.2c-2.1,2-4.9,3-8.4,3h-7.7V96.6h7.7c7.7,0,11.5,3.5,11.5,10.5
	C829.9,110.5,828.9,113.2,826.8,115.2"/>
<path class="st7" d="M818,100.6h-2.4v13.7h2.4c2.1,0,3.8-0.7,5-1.9c1.2-1.3,1.8-3,1.8-5.1c0-2-0.6-3.6-1.7-4.8
	C821.8,101.2,820.2,100.6,818,100.6"/>
<path class="st1" d="M842.2,104.6c0.6-0.5,0.9-1.2,0.9-2c0-1.6-1.2-2.4-3.5-2.4h-1.8v5.1h2.2C840.9,105.3,841.7,105.1,842.2,104.6"
	/>
<path class="st1" d="M843,109.7c-0.6-0.5-1.5-0.7-2.6-0.7h-2.7v5.7h2.6c1.1,0,2-0.3,2.7-0.8c0.6-0.5,0.9-1.2,0.9-2.1
	C844,110.9,843.7,110.2,843,109.7"/>
<path class="st9" d="M922,127.9c0,1.4,1,2.7,2.7,2.7h64.7c1.4,0,2.7-1,2.7-2.7V81.5h-70L922,127.9L922,127.9z"/>
<path class="st10" d="M989.3,70.9h-64.7c-1.7,0-2.7,1.3-2.7,2.7v8h70v-8C992,72.1,991,70.9,989.3,70.9"/>
<rect x="948.3" y="86.1" class="st2" width="17.6" height="10.6"/>
<rect x="948.3" y="100.6" class="st11" width="17.6" height="10.6"/>
<rect x="969.3" y="100.6" class="st11" width="17.6" height="10.6"/>
<rect x="969.3" y="86.1" class="st2" width="17.6" height="10.6"/>
<rect x="927.3" y="86.1" class="st2" width="17.6" height="10.6"/>
<rect x="927.3" y="100.6" class="st2" width="17.6" height="10.6"/>
<rect x="927.3" y="114.8" class="st11" width="17.6" height="10.6"/>
<rect x="948.3" y="114.8" class="st11" width="17.6" height="10.6"/>
<rect x="969.3" y="114.8" class="st11" width="17.6" height="10.6"/>
<path class="st12" d="M924.7,70.9c-1.3,0-2.7,1.3-2.7,2.7v54.3c0,1.4,1.4,2.7,2.7,2.7h2.9L983,70.9H924.7z"/>
<rect x="95" y="67.7" class="st13" width="220" height="67"/>
<text transform="matrix(1 0 0 1 95 116.6517)" class="st14 st15 st16">Classes</text>
</svg>
