<?xml version="1.0" encoding="utf-8"?>
<!-- Generator: Adobe Illustrator 22.1.0, SVG Export Plug-In . SVG Version: 6.00 Build 0)  -->
<svg version="1.1" id="Layer_1" xmlns="http://www.w3.org/2000/svg" xmlns:xlink="http://www.w3.org/1999/xlink" x="0px" y="0px"
	 viewBox="0 0 1140 360" style="enable-background:new 0 0 1140 360;" xml:space="preserve">
<style type="text/css">
	.st0{fill:#68217A;}
	.st1{fill:#E44D26;}
	.st2{fill:#F16529;}
	.st3{fill:#EBEBEB;}
	.st4{fill:#FFFFFF;}
	.st5{fill:#0071BC;}
	.st6{fill:#29ABE2;}
	.st7{fill:#B3B3B3;}
	.st8{fill:#E6E6E6;}
	.st9{fill:#F0DB4F;}
	.st10{fill:#353630;}
	.st11{fill:#FFFFFF;stroke:#000000;stroke-miterlimit:10;}
	.st12{font-family:'ArialMT';}
	.st13{font-size:69.9044px;}
</style>
<path class="st0" d="M0,0h1140v360H0V0z"/>
<polygon class="st1" points="625.5,132.8 619.7,67.7 683.4,67.7 677.6,132.8 651.5,140 "/>
<polygon class="st2" points="651.5,134.5 672.6,128.6 677.6,73 651.5,73 "/>
<polygon class="st3" points="651.5,97.2 641,97.2 640.2,89 651.5,89 651.5,81 651.5,81 631.5,81 631.7,83.2 633.7,105.2 
	651.5,105.2 "/>
<polygon class="st3" points="651.5,117.9 651.5,117.9 642.6,115.5 642,109.2 637.7,109.2 634,109.2 635.1,121.7 651.5,126.2 
	651.5,126.2 "/>
<path d="M625.6,50h4.1v4h3.7v-4h4.1v12.1h-4.1v-4.1h-3.7v4.1h-4.1V50z M642.7,54.1h-3.6v-4h11.2v4h-3.6v8.1h-4.1V54.1z M652.2,50
	h4.2l2.6,4.3l2.6-4.3h4.2v12.1h-4v-6l-2.8,4.3h-0.1l-2.8-4.3v6h-4L652.2,50L652.2,50z M667.8,50h4.1v8.1h5.7v4h-9.8L667.8,50
	L667.8,50z"/>
<polygon class="st4" points="651.5,97.2 651.5,105.2 661.3,105.2 660.4,115.5 651.5,117.9 651.5,126.2 667.9,121.7 668,120.3 
	669.9,99.3 670.1,97.2 667.9,97.2 "/>
<polygon class="st4" points="651.5,81 651.5,86 651.5,89 651.5,89 670.8,89 670.8,89 670.8,89 670.9,87.2 671.3,83.2 671.5,81 "/>
<polygon points="777.8,55.8 777.8,51.7 767.9,51.7 767.9,63.8 777.8,63.8 777.8,59.6 772,59.6 772,55.8 "/>
<polygon points="791.8,51.7 781.9,51.7 781.9,55.9 786,59.6 781.9,59.6 781.9,63.8 791.8,63.8 791.8,59.7 788,55.8 791.8,55.8 "/>
<polygon points="806.1,51.7 796.2,51.7 796.2,55.9 800.2,59.6 796.2,59.6 796.2,63.8 806.1,63.8 806.1,59.7 802.2,55.8 806.1,55.8 
	"/>
<polygon class="st5" points="760.9,134.4 755.1,69.3 818.9,69.3 813.1,134.4 787,141.7 "/>
<polygon class="st6" points="787.1,136.1 808.1,130.3 813.1,74.7 787.1,74.7 "/>
<polygon class="st7" points="768.4,98.7 769.1,106.6 787.1,98.7 787.1,90.7 "/>
<polygon class="st8" points="806.9,82.1 787.1,90.7 787.1,98.7 806.3,90.1 "/>
<polygon class="st8" points="787.1,119.5 787,119.5 778.1,117.1 777.5,110.8 769.5,110.8 770.6,123.3 787,127.8 787.1,127.8 "/>
<polygon class="st4" points="787.1,98.7 787.1,106.6 796.8,106.6 795.9,117.1 787.1,119.5 787.1,127.8 803.4,123.3 805.5,98.7 "/>
<polygon class="st8" points="787.1,98.7 768.4,98.7 769.1,106.6 787.1,106.6 "/>
<polygon class="st8" points="787.1,90.1 787.1,82.1 787,82.1 767,82.1 767.7,90.1 "/>
<polygon class="st4" points="787.1,82.1 787.1,90 787.1,90.1 806.3,90.1 806.9,82.1 "/>
<rect x="882.2" y="64.2" class="st9" width="70" height="70"/>
<path class="st10" d="M929.3,118.9c1.4,2.3,3.2,4,6.5,4c2.7,0,4.5-1.4,4.5-3.2c0-2.3-1.8-3.1-4.8-4.4l-1.6-0.7
	c-4.7-2-7.9-4.6-7.9-9.9c0-4.9,3.8-8.7,9.6-8.7c4.2,0,7.2,1.5,9.4,5.3l-5.1,3.3c-1.1-2-2.3-2.8-4.2-2.8c-1.9,0-3.1,1.2-3.1,2.8
	c0,2,1.2,2.8,4,4l1.6,0.7c5.6,2.4,8.7,4.8,8.7,10.3c0,5.9-4.7,9.2-10.9,9.2c-6.1,0-10.1-2.9-12-6.7L929.3,118.9L929.3,118.9z
	 M906,119.5c1,1.8,2,3.4,4.2,3.4c2.2,0,3.5-0.8,3.5-4.1V96.4h6.6v22.5c0,6.8-4,9.9-9.8,9.9c-5.3,0-8.3-2.7-9.9-6L906,119.5
	L906,119.5z"/>
<rect x="548.5" y="61" class="st4" width="1" height="74"/>
<text transform="matrix(0.9871 0 0 1 251 117.6875)" class="st11 st12 st13">Classes</text>
</svg>
